<svg width="800" height="500" viewBox="0 0 800 500" xmlns="http://www.w3.org/2000/svg" role="img" aria-label="EcoTote project preview">
  <defs>
    <linearGradient id="bg" x1="0" y1="0" x2="1" y2="1">
      <stop offset="0%" stop-color="#0a0a0a"/>
      <stop offset="100%" stop-color="#1a0f04"/>
    </linearGradient>
    <radialGradient id="glow" cx="80%" cy="15%" r="60%">
      <stop offset="0%" stop-color="#f97316" stop-opacity="0.35"/>
      <stop offset="100%" stop-color="#f97316" stop-opacity="0"/>
    </radialGradient>
  </defs>
  <rect width="800" height="500" fill="url(#bg)"/>
  <rect width="800" height="500" fill="url(#glow)"/>
  <g opacity="0.9">
    <path d="M400 120c60 0 110 55 110 130 0 90-70 150-110 150s-110-60-110-150c0-75 50-130 110-130z" fill="none" stroke="#f97316" stroke-width="3"/>
    <path d="M400 150v210M330 220c30-20 140-20 140 0M320 300c40-25 120-25 160 0" stroke="#f97316" stroke-width="2" fill="none" opacity="0.7"/>
  </g>
  <text x="60" y="420" font-family="Arial, sans-serif" font-size="42" font-weight="700" fill="#fafafa">EcoTote</text>
  <text x="60" y="452" font-family="Arial, sans-serif" font-size="18" fill="#f97316">E-commerce &#183; HTML / CSS / JS</text>
</svg>
