<svg width="800" height="500" viewBox="0 0 800 500" xmlns="http://www.w3.org/2000/svg" role="img" aria-label="Tasteorama profile and favorites preview">
  <defs>
    <linearGradient id="bg" x1="0" y1="0" x2="1" y2="1">
      <stop offset="0%" stop-color="#0a0a0a"/>
      <stop offset="100%" stop-color="#1a0f04"/>
    </linearGradient>
    <radialGradient id="glow" cx="80%" cy="15%" r="60%">
      <stop offset="0%" stop-color="#f97316" stop-opacity="0.35"/>
      <stop offset="100%" stop-color="#f97316" stop-opacity="0"/>
    </radialGradient>
  </defs>
  <rect width="800" height="500" fill="url(#bg)"/>
  <rect width="800" height="500" fill="url(#glow)"/>
  <g fill="none" stroke="#f97316" stroke-width="3">
    <circle cx="330" cy="210" r="45"/>
    <path d="M270 320c0-40 40-55 60-55s60 15 60 55" stroke-linecap="round"/>
  </g>
  <g fill="#f97316">
    <path d="M480 190l8 17 19 3-14 14 3 19-16-9-16 9 3-19-14-14 19-3z"/>
    <path d="M560 190l8 17 19 3-14 14 3 19-16-9-16 9 3-19-14-14 19-3z" opacity="0.7"/>
  </g>
  <text x="60" y="420" font-family="Arial, sans-serif" font-size="42" font-weight="700" fill="#fafafa">Tasteorama</text>
  <text x="60" y="452" font-family="Arial, sans-serif" font-size="18" fill="#f97316">Profile &amp; favorites</text>
</svg>
